<svg xmlns="http://www.w3.org/2000/svg" width="145" height="32" viewBox="0 0 145 32">
    <g fill="#004AFF" fill-rule="evenodd">
        <path d="M48.42 22.54c-1.246 0-2.343-.131-3.27-.392v-7.709c.16-.434.37-.863.628-1.276.27-.435.6-.828.98-1.167.364-.323.788-.58 1.258-.766.462-.182 1.014-.274 1.642-.274.679 0 1.254.126 1.709.376.48.263.87.614 1.192 1.071.334.475.586 1.057.747 1.73.172.716.26 1.505.26 2.342 0 2.185-.467 3.763-1.387 4.69-.92.925-2.148 1.376-3.758 1.376m1.738-16.045a9.037 9.037 0 0 0-3.627.746 6.28 6.28 0 0 0-1.382.818V1.898c0-.496-.42-.898-.937-.898h-3.276c-.517 0-.937.402-.937.898v22.94c0 .322.179.618.469.779.711.393 1.729.717 3.11.99 1.326.26 2.821.393 4.443.393 3.419 0 6.13-.913 8.06-2.712C58.018 22.48 59 19.864 59 16.509c0-3.253-.752-5.752-2.235-7.426-1.521-1.717-3.744-2.587-6.606-2.587M70.191 21.516a5.422 5.422 0 0 1-1.325.627c-.5.167-1.095.251-1.767.251-.858 0-1.549-.18-2.055-.534-.262-.184-.61-.525-.61-1.358 0-1.207.478-1.635.838-1.852.707-.425 1.714-.64 2.992-.64.608 0 1.132.011 1.556.033.429.024.8.047 1.111.07.205.015.383.035.529.06v1.856a4.22 4.22 0 0 1-.436.716 3.38 3.38 0 0 1-.833.77m6.395 1.945c-.08-.796-.12-1.638-.12-2.5 0-1.5.047-2.907.14-4.182a55 55 0 0 0 .145-3.962c0-.744-.085-1.505-.254-2.263a5.308 5.308 0 0 0-1.138-2.28c-.569-.675-1.364-1.231-2.365-1.653C72 6.203 70.757 6 69.193 6c-3.282 0-6.089.54-8.343 1.607a.925.925 0 0 0-.487 1.123l.89 2.715a.931.931 0 0 0 .53.57.945.945 0 0 0 .78-.027c.388-.192.838-.379 1.337-.555a15.076 15.076 0 0 1 3.064-.73c.504-.064.966-.097 1.374-.097.712 0 1.316.052 1.794.155.391.084.691.213.891.38.186.158.32.37.409.65.113.354.17.817.17 1.377 0 .343-.01.63-.027.855-.18-.023-.379-.046-.595-.068-.36-.037-.797-.067-1.335-.092a43.523 43.523 0 0 0-1.912-.036c-.998 0-2.015.128-3.025.38a8.883 8.883 0 0 0-2.805 1.225 6.852 6.852 0 0 0-2.079 2.2c-.547.917-.824 2.001-.824 3.222 0 .935.186 1.797.552 2.565a5.74 5.74 0 0 0 1.507 1.952c.621.52 1.364.927 2.208 1.21.829.278 1.744.419 2.721.419.96 0 1.83-.107 2.585-.316.74-.206 1.411-.47 1.994-.785a7.157 7.157 0 0 0 1.734-1.292l.483 1.53a.936.936 0 0 0 .894.651h2.385a.94.94 0 0 0 .743-.362.921.921 0 0 0 .162-.805 13.445 13.445 0 0 1-.382-2.161M92.575 15.667a9.256 9.256 0 0 0-2.214-1.082 31.926 31.926 0 0 0-2.228-.66 32.312 32.312 0 0 1-1.471-.42 6.065 6.065 0 0 1-1.088-.446 1.942 1.942 0 0 1-.586-.461c-.052-.065-.122-.179-.122-.425 0-.641.149-1.062.442-1.25.286-.183.884-.4 2.107-.4.974 0 1.874.129 2.675.385.86.276 1.606.558 2.215.84.253.116.546.12.802.01a.923.923 0 0 0 .523-.584l.794-2.7a.9.9 0 0 0-.534-1.082 22.394 22.394 0 0 0-2.83-.943C89.948 6.15 88.576 6 86.982 6c-2.234 0-4.02.512-5.307 1.521-1.344 1.055-2.026 2.643-2.026 4.721 0 1.08.225 2.003.668 2.74a5.553 5.553 0 0 0 1.665 1.761c.64.432 1.37.776 2.166 1.022.71.22 1.43.427 2.137.614.535.157 1.057.316 1.55.474.44.14.826.305 1.15.49.272.155.478.33.63.537.113.156.169.364.169.636 0 1.009-.37 1.322-.648 1.47-.611.327-1.433.492-2.442.492a9.33 9.33 0 0 1-2.904-.47c-1.005-.33-1.83-.659-2.455-.98a.987.987 0 0 0-.802-.042.927.927 0 0 0-.548.563l-.938 2.77c-.143.42.05.878.457 1.086.827.422 1.857.796 3.062 1.113 1.22.32 2.657.482 4.272.482 2.64 0 4.678-.624 6.056-1.854C94.292 23.9 95 22.271 95 20.308c0-1.103-.23-2.047-.685-2.808a5.761 5.761 0 0 0-1.74-1.833M108.575 15.667a9.256 9.256 0 0 0-2.214-1.082 31.926 31.926 0 0 0-2.228-.66 32.312 32.312 0 0 1-1.471-.42 6.065 6.065 0 0 1-1.088-.446 1.942 1.942 0 0 1-.586-.461c-.052-.065-.122-.179-.122-.425 0-.641.149-1.062.442-1.25.286-.183.884-.4 2.107-.4.974 0 1.874.129 2.675.385.86.276 1.606.558 2.215.84.252.116.546.12.802.01a.923.923 0 0 0 .523-.584l.794-2.7a.9.9 0 0 0-.534-1.082 22.394 22.394 0 0 0-2.83-.943C105.948 6.15 104.576 6 102.982 6c-2.234 0-4.02.512-5.307 1.521-1.344 1.055-2.026 2.643-2.026 4.721 0 1.08.225 2.003.668 2.74a5.553 5.553 0 0 0 1.665 1.761c.64.432 1.37.776 2.166 1.022.71.22 1.43.427 2.137.614.535.157 1.057.316 1.55.474.44.14.826.305 1.15.49.272.155.478.33.63.537.113.156.169.364.169.636 0 1.009-.37 1.322-.648 1.47-.611.327-1.433.492-2.442.492a9.33 9.33 0 0 1-2.904-.47c-1.005-.33-1.83-.659-2.455-.98a.987.987 0 0 0-.802-.042.927.927 0 0 0-.548.563l-.938 2.77c-.143.42.05.878.457 1.086.827.422 1.857.796 3.062 1.113 1.22.32 2.657.482 4.272.482 2.64 0 4.678-.624 6.056-1.854C110.292 23.9 111 22.271 111 20.308c0-1.103-.23-2.047-.685-2.808a5.761 5.761 0 0 0-1.74-1.833M117.576 13.754c.222-1.06.637-1.828 1.236-2.29.809-.625 1.956-.942 3.41-.942 1.249 0 2.173.291 2.825.89.499.458.788 1.244.863 2.342h-8.334zm10.522-6.167a7.507 7.507 0 0 0-2.897-1.272A14.785 14.785 0 0 0 122.185 6c-3.219 0-5.753.93-7.532 2.766-1.76 1.816-2.653 4.43-2.653 7.769 0 1.534.195 2.948.58 4.203.397 1.297 1.02 2.424 1.85 3.349.843.939 1.93 1.67 3.234 2.172 1.274.492 2.783.741 4.485.741 1.552 0 3.015-.193 4.348-.574 1.352-.387 2.507-.918 3.434-1.579a.888.888 0 0 0 .283-1.139l-1.262-2.423a.947.947 0 0 0-.686-.49.978.978 0 0 0-.819.238c-.41.376-1.02.713-1.812 1.003-.8.293-1.658.442-2.548.442-2.136 0-3.633-.445-4.451-1.323-.705-.757-1.136-1.862-1.288-3.294h12.522c.47 0 .87-.33.939-.776.077-.489.128-.997.154-1.512.025-.51.037-.944.037-1.323 0-1.652-.268-3.03-.795-4.096-.533-1.074-1.241-1.938-2.107-2.567zM144.957 24.665l-.704-2.252a.902.902 0 0 0-.446-.536.856.856 0 0 0-.682-.045c-.564.201-1.068.364-1.499.483-.381.106-.817.16-1.296.16-.815 0-1.017-.34-1.093-.468-.151-.254-.405-.93-.405-2.605V11.03h4.414c.487 0 .882-.408.882-.911V7.415c0-.503-.395-.912-.882-.912h-4.414V2.911a.923.923 0 0 0-.343-.721.862.862 0 0 0-.762-.16l-3.084.83a.907.907 0 0 0-.66.883v2.76h-2.1c-.488 0-.883.409-.883.912v2.703c0 .503.395.911.882.911h2.101v9.447c0 2.216.385 3.804 1.175 4.855.831 1.107 2.188 1.669 4.032 1.669 1.008 0 1.968-.12 2.854-.358.857-.231 1.674-.521 2.427-.862a.922.922 0 0 0 .486-1.115M24.965 16.427c-.725 1.98-2.636 3.324-4.76 3.346l-5.877.059a15.356 15.356 0 0 0 .01-1.818l-.297-10.473a1.15 1.15 0 0 0-1.188-1.116 1.152 1.152 0 0 0-1.123 1.18l.296 10.458c.001.08.005.158.01.236.04.494.024 3.784-.958 6.46-.593 1.619-1.407 2.69-2.417 3.184-2.1 1.026-4.27 2.089-4.959 1.663-1.103-.683-1.33-5.494-1.377-9.663L2.4 6.655c0-1.23.541-2.39 1.485-3.185A4.206 4.206 0 0 1 7.28 2.54l17.364 3.196a3.695 3.695 0 0 0 2.262 3.637c-1.635 6.029-1.9 6.928-1.94 7.055m2.15-12.664L7.705.19l-.02-.003A6.617 6.617 0 0 0 1.55 2.43C.516 3.641 0 5.207 0 6.795l.001.04V16.914c0 1.298.007 2.49.025 3.591v.042c.11 6.711.623 9.877 2.455 11.01A2.998 2.998 0 0 0 4.1 32c1.502 0 3.316-.887 5.581-1.995 1.565-.764 2.765-2.264 3.57-4.458.4-1.093.66-2.252.828-3.327l6.368-.063c3.15-.032 5.925-2.088 6.83-5.086.127-.42.578-2.017 2.478-9.037a3.376 3.376 0 0 0-2.64-4.27"/>
        <path d="M18.5 6c-.827 0-1.5.673-1.5 1.5S17.673 9 18.5 9 20 8.327 20 7.5 19.327 6 18.5 6"/>
    </g>
</svg>
